Coordinates
version=1
nRows=12
nColumns=34
inDegrees=no

Units are S.I. units (second, meters, Newtons, ...)
If the header above contains a line with 'inDegrees', this indicates whether rotational values are in degrees (yes) or radians (no).

endheader
time	pelvis_tilt	pelvis_list	pelvis_rotation	pelvis_tx	pelvis_ty	pelvis_tz	hip_flexion_r	hip_adduction_r	hip_rotation_r	knee_angle_r	ankle_angle_r	subtalar_angle_r	mtp_angle_r	hip_flexion_l	hip_adduction_l	hip_rotation_l	knee_angle_l	ankle_angle_l	subtalar_angle_l	mtp_angle_l	lumbar_extension	lumbar_bending	lumbar_rotation	arm_flex_r	arm_add_r	arm_rot_r	elbow_flex_r	pro_sup_r	arm_flex_l	arm_add_l	arm_rot_l	elbow_flex_l	pro_sup_l
0.43	0.102108	-0.161878	-0.0132628	0.487842	0.921362	-0.220545	-0.334964	0.233255	0.122172	-0.00964878	0.227518	-0.0307948	0.000507473	0.519651	-0.19865	-0.0145074	0.563114	0.161498	0.146987	0.000468385	-0.388029	0.206831	0.137724	0.293622	-0.303262	0.0896612	0.918198	2.10211	-0.0543025	-0.127105	-0.236138	0.670629	2.09645
0.44	0.108887	-0.157548	-0.0111313	0.499106	0.920459	-0.221274	-0.356576	0.227628	0.116178	-0.0097029	0.23694	-0.0223021	0.000511418	0.498664	-0.187929	-0.0153584	0.491534	0.16803	0.155232	0.000472501	-0.394755	0.200926	0.137743	0.303818	-0.30272	0.0987571	0.924133	2.10552	-0.0542607	-0.128155	-0.238765	0.668793	2.09303
0.45	0.115417	-0.152287	-0.00945606	0.510499	0.91955	-0.222041	-0.376013	0.220622	0.104378	-0.00682986	0.249135	-0.00726541	0.000515361	0.476304	-0.176515	-0.0165227	0.423185	0.174001	0.15796	0.000476616	-0.401139	0.193993	0.137659	0.313149	-0.302147	0.107711	0.929396	2.11014	-0.0539176	-0.129233	-0.24107	0.66655	2.08967
0.46	0.121435	-0.14621	-0.00850136	0.522034	0.918649	-0.222846	-0.392743	0.212097	0.0862121	-0.00043846	0.264089	0.0153114	0.000519304	0.453263	-0.164593	-0.0179936	0.359628	0.179095	0.155085	0.000480731	-0.406918	0.18614	0.137676	0.321499	-0.301603	0.1164	0.93399	2.1157	-0.053405	-0.130209	-0.243069	0.663945	2.08632
0.47	0.126715	-0.139467	-0.00845913	0.53372	0.917763	-0.223687	-0.406215	0.201945	0.0614611	0.0101764	0.281557	0.0457863	0.000523246	0.430252	-0.15236	-0.0197735	0.302377	0.182998	0.147	0.000484844	-0.411864	0.177512	0.137936	0.328729	-0.301112	0.124672	0.937947	2.12181	-0.0528589	-0.130971	-0.244786	0.661035	2.08294
0.48	0.131096	-0.132206	-0.00941539	0.545564	0.916907	-0.224565	-0.416068	0.190099	0.0305339	0.0256013	0.300931	0.0835524	0.000527187	0.407938	-0.139983	-0.0218857	0.25274	0.185425	0.134594	0.000488957	-0.415793	0.168257	0.138497	0.334676	-0.300652	0.132346	0.94133	2.12801	-0.0524092	-0.131454	-0.246237	0.65789	2.07955
0.49	0.13452	-0.124528	-0.0113328	0.557576	0.91609	-0.225476	-0.422304	0.176528	-0.00535415	0.0460455	0.321181	0.126858	0.000531127	0.38682	-0.127547	-0.0243542	0.211611	0.186093	0.119116	0.000493069	-0.418612	0.158472	0.139306	0.33916	-0.300146	0.139195	0.944212	2.13385	-0.0521667	-0.13165	-0.247421	0.654593	2.07622
0.5	0.137072	-0.116453	-0.0140533	0.569768	0.915322	-0.226418	-0.425346	0.161234	-0.0442272	0.0711594	0.340901	0.172929	0.000535065	0.367122	-0.115008	-0.0271399	0.179298	0.184667	0.101922	0.00049718	-0.420354	0.148166	0.140203	0.341998	-0.299462	0.144957	0.946666	2.13902	-0.0522113	-0.131623	-0.248298	0.651243	2.07301
0.51	0.138948	-0.107939	-0.017324	0.582154	0.914605	-0.227386	-0.425948	0.144278	-0.0835881	0.100082	0.35845	0.218318	0.000539003	0.348794	-0.102224	-0.0301058	0.155461	0.18073	0.0842318	0.000501289	-0.421173	0.137282	0.140951	0.343027	-0.298442	0.149355	0.948756	2.14335	-0.0525861	-0.131495	-0.248788	0.647944	2.07004
0.52	0.140418	-0.0988934	-0.0208415	0.594754	0.913994	-0.228389	-0.42498	0.125806	-0.120953	0.131698	0.372202	0.259617	0.00054294	0.331591	-0.0890125	-0.0330107	0.139187	0.173815	0.0669455	0.000505398	-0.421293	0.125759	0.141274	0.34212	-0.296932	0.152144	0.950526	2.14685	-0.0532964	-0.131415	-0.248776	0.644797	2.06739
0.53	0.141742	-0.0892533	-0.0242898	0.607573	0.913509	-0.229434	-0.423211	0.106029	-0.154322	0.164945	0.380759	0.294074	0.000546875	0.315189	-0.0752017	-0.0355529	0.129168	0.163495	0.0505452	0.000509505	-0.420958	0.113559	0.140897	0.339215	-0.294814	0.153155	0.952002	2.14959	-0.0543129	-0.131537	-0.248127	0.641886	2.06515
0.54	0.143124	-0.0789981	-0.0273779	0.620601	0.913166	-0.23053	-0.421149	0.0851965	-0.182446	0.199051	0.383067	0.319932	0.000550809	0.299313	-0.0606821	-0.0374483	0.12396	0.149523	0.0351199	0.000513612	-0.420385	0.100707	0.139572	0.334324	-0.292028	0.152329	0.953186	2.15166	-0.0555783	-0.131992	-0.246721	0.639279	2.06336
